<?xml version="1.0" encoding="iso-8859-1"?>
<!-- Generator: Adobe Illustrator 19.0.0, SVG Export Plug-In . SVG Version: 6.00 Build 0)  -->
<svg version="1.1" id="Capa_1" xmlns="http://www.w3.org/2000/svg" xmlns:xlink="http://www.w3.org/1999/xlink" x="0px" y="0px"
	 viewBox="0 0 511 511" style="enable-background:new 0 0 511 511;" xml:space="preserve">
<path d="M455.5,168H423v-66.234c9.29-3.138,16-11.93,16-22.266c0-10.369-13.264-30.377-17.329-36.263
	C420.271,41.21,417.964,40,415.5,40s-4.771,1.21-6.171,3.237C405.264,49.123,392,69.131,392,79.5c0,10.336,6.71,19.128,16,22.266
	V168h-49v-66.234c9.29-3.138,16-11.93,16-22.266c0-10.369-13.264-30.377-17.329-36.263C356.271,41.21,353.964,40,351.5,40
	s-4.771,1.21-6.171,3.237C341.264,49.123,328,69.131,328,79.5c0,10.336,6.71,19.128,16,22.266V168h-49v-66.234
	c9.29-3.138,16-11.93,16-22.266c0-10.369-13.264-30.377-17.329-36.263C292.271,41.21,289.964,40,287.5,40s-4.771,1.21-6.171,3.237
	C277.264,49.123,264,69.131,264,79.5c0,10.336,6.71,19.128,16,22.266V168h-49v-66.234c9.29-3.138,16-11.93,16-22.266
	c0-10.369-13.264-30.377-17.329-36.263C228.271,41.21,225.964,40,223.5,40s-4.771,1.21-6.171,3.237
	C213.264,49.123,200,69.131,200,79.5c0,10.336,6.71,19.128,16,22.266V168h-49v-66.234c9.29-3.138,16-11.93,16-22.266
	c0-10.369-13.264-30.377-17.329-36.263C164.271,41.21,161.964,40,159.5,40s-4.771,1.21-6.171,3.237
	C149.264,49.123,136,69.131,136,79.5c0,10.336,6.71,19.128,16,22.266V168h-49v-66.234c9.29-3.138,16-11.93,16-22.266
	c0-10.369-13.264-30.377-17.329-36.263C100.271,41.21,97.964,40,95.5,40s-4.771,1.21-6.171,3.237C85.264,49.123,72,69.131,72,79.5
	c0,10.336,6.71,19.128,16,22.266V168H55.5C24.897,168,0,192.897,0,223.5v50.14c0,7.002,3.552,13.439,9.501,17.22
	c2.036,1.293,4.238,2.176,6.499,2.652V439.5c0,17.369,14.131,31.5,31.5,31.5h416c17.369,0,31.5-14.131,31.5-31.5v-47.998
	c0-0.001,0-0.003,0-0.005v-87.995c0-0.001,0-0.003,0-0.005v-9.985c2.261-0.477,4.463-1.359,6.499-2.653
	c5.95-3.781,9.501-10.218,9.501-17.22V223.5C511,192.897,486.103,168,455.5,168z M415.5,61.354c4.911,8.188,8.481,15.63,8.5,18.147
	c0,4.687-3.813,8.5-8.5,8.5c-4.687,0-8.5-3.813-8.5-8.5C407.019,76.983,410.589,69.542,415.5,61.354z M351.5,61.354
	c4.911,8.188,8.481,15.63,8.5,18.147c0,4.687-3.813,8.5-8.5,8.5c-4.687,0-8.5-3.813-8.5-8.5
	C343.019,76.983,346.589,69.542,351.5,61.354z M287.5,61.354c4.911,8.188,8.481,15.63,8.5,18.147c0,4.687-3.813,8.5-8.5,8.5
	c-4.687,0-8.5-3.813-8.5-8.5C279.019,76.983,282.589,69.542,287.5,61.354z M223.5,61.354c4.911,8.188,8.481,15.63,8.5,18.147
	c0,4.687-3.813,8.5-8.5,8.5c-4.687,0-8.5-3.813-8.5-8.5C215.019,76.983,218.589,69.542,223.5,61.354z M159.5,61.354
	c4.911,8.188,8.481,15.63,8.5,18.147c0,4.687-3.813,8.5-8.5,8.5c-4.687,0-8.5-3.813-8.5-8.5
	C151.019,76.983,154.589,69.542,159.5,61.354z M95.5,61.354c4.911,8.188,8.481,15.63,8.5,18.147c0,4.687-3.813,8.5-8.5,8.5
	c-4.687,0-8.5-3.813-8.5-8.5C87.019,76.983,90.589,69.542,95.5,61.354z M81.442,280H41.554C45.021,274.508,47,267.959,47,261.102
	v-12.244c0-9.383,6.999-17.384,15.602-17.834c4.588-0.237,8.938,1.36,12.253,4.505c3.317,3.148,5.145,7.4,5.145,11.971v22.642
	C80,273.574,80.509,276.885,81.442,280z M469.446,280H431v-31.142c0-9.383,6.999-17.384,15.602-17.834
	c4.59-0.242,8.939,1.36,12.254,4.505c3.317,3.148,5.145,7.4,5.145,11.971v13.602C464,267.959,465.979,274.508,469.446,280z
	 M466.606,400l-17-17h18.787L480,394.606V400H466.606z M426.606,400l-17-17h18.787l17,17H426.606z M386.606,400l-17-17h18.787l17,17
	H386.606z M346.606,400l-17-17h18.787l17,17H346.606z M306.606,400l-17-17h18.787l17,17H306.606z M266.606,400l-17-17h18.787l17,17
	H266.606z M226.606,400l-17-17h18.787l17,17H226.606z M186.606,400l-17-17h18.787l17,17H186.606z M146.606,400l-17-17h18.787l17,17
	H146.606z M106.606,400l-17-17h18.787l17,17H106.606z M66.606,400l-17-17h18.787l17,17H66.606z M68.394,295l17,17H66.606l-17-17
	H68.394z M45.394,312H31v-14.394L45.394,312z M31,385.606L45.394,400H31V385.606z M466.606,312l-17-17h18.787L480,306.606V312
	H466.606z M430.925,297.532L445.394,312h-19.076C428.989,307.646,430.589,302.669,430.925,297.532z M346.606,312l-16.195-16.195
	c0.162-0.268,0.33-0.532,0.484-0.805h17.499l17,17H346.606z M368,280h-33.017c0.003-0.167,0.017-0.333,0.017-0.5v-22.642
	c0-9.383,6.999-17.384,15.602-17.834c4.587-0.239,8.939,1.36,12.254,4.505c3.317,3.148,5.145,7.4,5.145,11.971V280z
	 M319.452,306.667c0.127-0.075,0.246-0.159,0.372-0.236l5.569,5.569h-18.787l-1.04-1.04
	C310.397,310.648,315.11,309.221,319.452,306.667z M266.606,312l-17-17h18.787l17,17H266.606z M239,311.5v-5.894l6.394,6.394h-6.406
	C238.99,311.833,239,311.668,239,311.5z M239.031,280c0.321-8.862,6.787-16.24,15.006-16.938c4.713-0.404,9.204,1.129,12.647,4.307
	c3.448,3.181,5.335,7.515,5.315,12.204c0,0.144,0.01,0.284,0.011,0.427H239.031z M234.906,327h164.508c0.026,0,0.052,0,0.079,0H480
	v41H31v-41h149.094c5.419,9.543,15.669,16,27.406,16S229.487,336.543,234.906,327z M176,301.394L169.606,295H176V301.394z M176,280
	h-34.188c0.774-2.75,1.188-5.608,1.188-8.5v-6.642c0-9.383,6.999-17.384,15.602-17.834c4.59-0.236,8.939,1.36,12.254,4.505
	c3.317,3.148,5.145,7.4,5.145,11.971V280z M132.961,294.55c0.793,0.286,1.645,0.45,2.537,0.45h12.896l17,17h-18.787l-15.694-15.694
	C131.615,295.753,132.298,295.168,132.961,294.55z M116.067,302.674l9.326,9.326h-18.787l-17.242-17.242
	c0.314-0.081,0.621-0.177,0.917-0.296c5.198,4.945,11.996,8.099,19.536,8.494C111.934,303.067,114.024,302.967,116.067,302.674z
	 M463.5,456h-416c-9.098,0-16.5-7.402-16.5-16.5V415h449v24.5C480,448.598,472.598,456,463.5,456z M496,273.64
	c0,2.169-1.315,3.778-2.546,4.56c-0.764,0.485-2.305,1.177-4.036,0.365l-0.303-0.146C482.97,275.407,479,268.609,479,261.102V247.5
	c0-8.601-3.579-16.93-9.819-22.852c-6.329-6.006-14.627-9.058-23.364-8.604C429.097,216.919,416,231.333,416,248.858v38.594
	c0,0.016-0.002,0.032-0.002,0.048s0.002,0.032,0.002,0.048v7.952c0,4.571-1.827,8.823-5.145,11.971
	c-3.314,3.146-7.674,4.742-12.254,4.505c-8.603-0.451-15.602-8.451-15.602-17.834v-6.565c0-0.026,0.004-0.051,0.004-0.077
	S383,287.449,383,287.423V255.5c0-8.601-3.579-16.93-9.819-22.852c-6.329-6.006-14.624-9.063-23.364-8.604
	C333.097,224.919,320,239.333,320,256.858V279.5c0,5.824-3.124,11.279-8.152,14.237c-5.335,3.139-11.913,2.982-18.043-0.426
	c-4.288-2.384-6.832-7.496-6.805-13.673c0.038-8.82-3.659-17.311-10.143-23.293c-6.48-5.979-15.253-8.978-24.089-8.229
	C236.636,249.486,224,263.792,224,280.685v6.813c0,0.001,0,0.003,0,0.005V311.5c0,9.098-7.402,16.5-16.5,16.5s-16.5-7.402-16.5-16.5
	v-48c0-8.601-3.579-16.93-9.819-22.852c-5.915-5.613-13.549-8.649-21.655-8.649c-0.567,0-1.137,0.015-1.709,0.045
	C141.097,232.919,128,247.333,128,264.858v6.642c0,4.571-1.827,8.823-5.145,11.971c-3.314,3.146-7.673,4.741-12.254,4.505
	C101.999,287.526,95,279.525,95,270.142V247.5c0-8.601-3.579-16.93-9.819-22.852c-6.329-6.005-14.624-9.055-23.363-8.604
	C45.098,216.919,32,231.333,32,248.858v12.244c0,7.507-3.97,14.305-10.108,17.315l-0.305,0.146c-1.74,0.813-3.278,0.121-4.04-0.363
	c-1.231-0.782-2.546-2.391-2.546-4.56V223.5c0-22.332,18.168-40.5,40.5-40.5h400c22.332,0,40.5,18.168,40.5,40.5V273.64z"/>
<g>
</g>
<g>
</g>
<g>
</g>
<g>
</g>
<g>
</g>
<g>
</g>
<g>
</g>
<g>
</g>
<g>
</g>
<g>
</g>
<g>
</g>
<g>
</g>
<g>
</g>
<g>
</g>
<g>
</g>
</svg>
